<?xml version="1.0" encoding="utf-8"?>
<!-- Generator: Adobe Illustrator 18.0.0, SVG Export Plug-In . SVG Version: 6.00 Build 0)  -->
<!DOCTYPE svg PUBLIC "-//W3C//DTD SVG 1.1//EN" "http://www.w3.org/Graphics/SVG/1.1/DTD/svg11.dtd">
<svg version="1.1" id="Layer_1" xmlns="http://www.w3.org/2000/svg" xmlns:xlink="http://www.w3.org/1999/xlink" x="0px" y="0px"
	 viewBox="0 0 232 127.5" enable-background="new 0 0 232 127.5" xml:space="preserve">
<g>
	<rect x="19.8" y="19.8" fill="#FFFFFF" width="192.4" height="87.9"/>
	<path fill="#162850" d="M213.7,109.2H18.3V18.3h195.4V109.2z M21.3,106.2h189.4V21.3H21.3V106.2z"/>
</g>
<rect x="192.4" y="87.9" fill="#FFFFFF" width="39.6" height="39.6"/>
<g>
	<path fill="#162850" d="M208.6,94.5v10.3c0,10.1-3.2,15.5-9.6,16.1v-5.5c2.3-1,3.5-3.1,3.5-6.5H199V94.5H208.6z"/>
	<path fill="#162850" d="M225.4,94.5v10.3c0,10.1-3.2,15.5-9.6,16.1v-5.5c2.3-1,3.5-3.1,3.5-6.5h-3.5V94.5H225.4z"/>
</g>
<rect x="0" fill="#FFFFFF" width="39.6" height="39.6"/>
<g>
	<path fill="#162850" d="M23.4,33V22.7c0-10.1,3.2-15.5,9.6-16.1v5.5c-2.3,1-3.5,3.1-3.5,6.5H33V33H23.4z"/>
	<path fill="#162850" d="M6.6,33V22.7c0-10.1,3.2-15.5,9.6-16.1v5.5c-2.3,1-3.5,3.1-3.5,6.5h3.5V33H6.6z"/>
</g>
</svg>
